<?xml version="1.0" encoding="UTF-8"?>
<svg xmlns:rdf="http://www.w3.org/1999/02/22-rdf-syntax-ns#" xmlns="http://www.w3.org/2000/svg" xmlns:cc="http://web.resource.org/cc/" xmlns:xlink="http://www.w3.org/1999/xlink" xmlns:dc="http://purl.org/dc/elements/1.1/" xmlns:svg="http://www.w3.org/2000/svg" id="svg41886" height="275pt" width="275pt" version="1.0">
  <defs id="defs41888">
    <radialGradient id="radialGradient6716" gradientUnits="userSpaceOnUse" cy="693.71" cx="393.1" gradientTransform="matrix(1 0 0 .022831 0 677.88)" r="342.99">
      <stop id="stop6712" offset="0"/>
      <stop id="stop6714" stop-opacity="0" offset="1"/>
    </radialGradient>
    <radialGradient id="radialGradient40380" gradientUnits="userSpaceOnUse" cy="56.648" cx="146.37" gradientTransform="matrix(1.2941 1.8049e-15 -3.8854e-16 1.3646 -43.049 -23.898)" r="20.11">
      <stop id="stop40322" stop-color="#fff" offset="0"/>
      <stop id="stop40324" stop-color="#fff" stop-opacity="0" offset="1"/>
    </radialGradient>
    <radialGradient id="radialGradient40378" gradientUnits="userSpaceOnUse" cy="102.98" cx="180.99" gradientTransform="matrix(1.2174 1.0449e-7 -6.6386e-8 1.2692 -39.344 -27.725)" r="4.4506">
      <stop id="stop27177" stop-color="#fff" offset="0"/>
      <stop id="stop27179" stop-color="#fff" stop-opacity="0" offset="1"/>
    </radialGradient>
    <radialGradient id="radialGradient40376" gradientUnits="userSpaceOnUse" cy="102.98" cx="182.95" gradientTransform="matrix(2.1316 -.0000010590 .0000010019 1.4083 -206.46 -42.045)" r="4.4506">
      <stop id="stop28058" stop-color="#fff" offset="0"/>
      <stop id="stop28060" stop-color="#fff" stop-opacity="0" offset="1"/>
    </radialGradient>
    <radialGradient id="radialGradient40374" gradientUnits="userSpaceOnUse" cy="106.67" cx="179.05" gradientTransform="matrix(1.2663 .0000011408 -.0000011168 1.9852 -47.673 -104.1)" r="4.4506">
      <stop id="stop28939" stop-color="#fff" offset="0"/>
      <stop id="stop28941" stop-color="#fff" stop-opacity="0" offset="1"/>
    </radialGradient>
    <radialGradient id="radialGradient40372" gradientUnits="userSpaceOnUse" cy="107.15" cx="179.05" gradientTransform="matrix(1.3026 -8.8739e-7 5.5411e-7 2.0948 -54.182 -115.84)" r="4.4506">
      <stop id="stop29820" stop-color="#fff" offset="0"/>
      <stop id="stop29822" stop-color="#fff" stop-opacity="0" offset="1"/>
    </radialGradient>
    <radialGradient id="radialGradient40370" gradientUnits="userSpaceOnUse" cy="106.4" cx="179.05" gradientTransform="matrix(1.233 -.000018758 .000011648 1.3579 -41.716 -37.153)" r="4.4506">
      <stop id="stop30701" stop-color="#fff" offset="0"/>
      <stop id="stop30703" stop-color="#fff" stop-opacity="0" offset="1"/>
    </radialGradient>
    <radialGradient id="radialGradient40368" gradientUnits="userSpaceOnUse" cy="106.6" cx="179.05" gradientTransform="matrix(1.233 -.0000091545 .000011648 1.5688 -41.716 -59.653)" r="4.4506">
      <stop id="stop31582" stop-color="#fff" offset="0"/>
      <stop id="stop31584" stop-color="#fff" stop-opacity="0" offset="1"/>
    </radialGradient>
    <linearGradient id="linearGradient40366" x1="215.6" gradientUnits="userSpaceOnUse" y1="78.375" gradientTransform="matrix(1.0037 5.5718e-17 -5.5511e-17 1 -.67263 -.067378)" x2="215.64" y2="90.207">
      <stop id="stop19276" offset="0"/>
      <stop id="stop19280" stop-color="#616161" stop-opacity="0" offset=".5"/>
      <stop id="stop19282" stop-opacity=".75" offset=".65789"/>
      <stop id="stop19278" stop-color="#c2c2c2" stop-opacity="0" offset="1"/>
    </linearGradient>
    <linearGradient id="linearGradient40364" y2="86.612" gradientUnits="userSpaceOnUse" y1="78.375" x2="166.13" x1="268.49">
      <stop id="stop24526" stop-color="#fff" offset="0"/>
      <stop id="stop24528" stop-color="#fff" stop-opacity="0" offset="1"/>
    </linearGradient>
    <linearGradient id="linearGradient40362" x1="211.04" gradientUnits="userSpaceOnUse" y1="64.63" gradientTransform="translate(-1.4843 .37108)" x2="197.75" y2="103.59">
      <stop id="stop17502" stop-color="#c2c2c2" offset="0"/>
      <stop id="stop17504" stop-color="#c2c2c2" stop-opacity="0" offset="1"/>
    </linearGradient>
    <radialGradient id="radialGradient40360" gradientUnits="userSpaceOnUse" cy="86.178" cx="121.34" gradientTransform="matrix(.54781 -.013095 .011116 .46499 53.913 47.695)" r="100.15">
      <stop id="stop16619" stop-color="#bebebe" offset="0"/>
      <stop id="stop16621" stop-color="#bebebe" stop-opacity="0" offset="1"/>
    </radialGradient>
    <radialGradient id="radialGradient40358" gradientUnits="userSpaceOnUse" cy="1.4748" cx="143.45" gradientTransform="matrix(.94529 -.0050978 .0068368 1.2678 7.8377 42.783)" r="100.15">
      <stop id="stop25411" stop-color="#fff" offset="0"/>
      <stop id="stop25413" stop-color="#fff" stop-opacity="0" offset="1"/>
    </radialGradient>
    <radialGradient id="radialGradient40356" gradientUnits="userSpaceOnUse" cy="86.549" cx="130.25" gradientTransform="matrix(1.904 -3.655e-7 1.0103e-7 .57990 -117.75 36.36)" r="100.15">
      <stop id="stop15736" stop-opacity="0" offset="0"/>
      <stop id="stop15738" offset="1"/>
    </radialGradient>
    <linearGradient id="linearGradient40354" x1="67.281" spreadMethod="reflect" gradientUnits="userSpaceOnUse" y1="86.338" x2="96.143" y2="111.2">
      <stop id="stop14815" stop-color="#5e5e5e" offset="0"/>
      <stop id="stop14821" stop-color="#828282" offset=".12262"/>
      <stop id="stop14823" stop-color="#7d7d7d" offset=".12262"/>
      <stop id="stop14825" stop-color="#424242" offset=".18419"/>
      <stop id="stop14827" stop-color="#949494" offset=".25575"/>
      <stop id="stop14829" stop-color="#b5b5b5" offset=".27"/>
      <stop id="stop14831" stop-color="#616161" offset=".29561"/>
      <stop id="stop14833" stop-color="#303030" offset=".36976"/>
      <stop id="stop14835" stop-color="#737373" offset=".42504"/>
      <stop id="stop14837" stop-color="#bababa" offset=".44522"/>
      <stop id="stop14839" stop-color="#575757" offset=".45495"/>
      <stop id="stop14841" stop-color="#b3b3b3" offset=".47408"/>
      <stop id="stop14843" stop-color="#333" offset=".52021"/>
      <stop id="stop14845" stop-color="#686868" offset=".54546"/>
      <stop id="stop14847" stop-color="#2e2e2e" offset=".61938"/>
      <stop id="stop14849" stop-color="#878787" offset=".70619"/>
      <stop id="stop14851" stop-color="#b5b5b5" offset=".73712"/>
      <stop id="stop14853" stop-color="#636363" offset=".79246"/>
      <stop id="stop14855" stop-color="#353535" offset=".80703"/>
      <stop id="stop14857" stop-color="#a8a8a8" offset=".85104"/>
      <stop id="stop14817" stop-color="#636363" offset="1"/>
    </linearGradient>
    <radialGradient id="radialGradient7603" gradientUnits="userSpaceOnUse" cy="684.32" cx="441.65" gradientTransform="matrix(1 0 0 .15 0 581.67)" r="93.969">
      <stop id="stop7599" stop-color="#fff" offset="0"/>
      <stop id="stop7601" stop-color="#fff" stop-opacity="0" offset="1"/>
    </radialGradient>
  </defs>
  <g id="layer1">
    <path id="path5835" opacity=".8" d="m736.09 693.71a342.99 7.8308 0 1 1 -685.97 0 342.99 7.8308 0 1 1 685.97 0z" fill-rule="evenodd" transform="matrix(.48287 0 0 1.8349 -16.198 -1039.1)" fill="url(#radialGradient6716)"/>
    <g id="g40337" transform="matrix(1.4335 .38566 -.38566 1.4335 -33.152 -10.038)">
      <path id="path604" d="m116.69 36.062c-9.9 0.139-19.737 3.066-27.846 9.094-15.844 11.78-23.695 30.982-21.063 50.5 0.736 5.454 4.347 10.384 5.063 15.654 5.091 4.88 8.412 10.97 14.281 15.22 17.275 12.5 41.955 13.82 59.815 1.5 4.98-3.44 9.12-7.69 12.68-12.56 2.39-3.26 4.45-7.89 8.66-9.16 3.64-1.09 6.39 2.91 10.03 2.35 2.65-0.41 2.02-3.72 4.25-4.69 1.27-0.55 8.95-3.14 9.91-2.88 1.9 0.53 2.58 2.95 4.84 2.79 2.98-0.22 3.93-3.923 6.6-4.568 2.39-0.58 4.12 2.828 5.84 3.938 3.95 2.54 7.7-1.02 9.47-4.375 2.79 1.455 4.45 5.425 7.72 5.685 3.08 0.25 5.05-3.27 7.65-2.97 4.18 0.49 6.85 4.44 11.88 2.91 5.93-1.8 11.28-9.591 16.06-13.406 1.86-1.485 4.72-3.24 5.03-5.844 0.34-2.854-3.44-6.901-5.28-8.812-3.39-3.525-11.84-1.876-16.37-1.876-15.05 0-30.02-1.186-45.03-1.187-6.1-0.001-18.88 2.994-18.97-5.313l-10.69-0.437-8.28-3.719c-1.31-7.239-8.49-13.716-14.19-17.844-9.17-6.637-20.66-10.159-32.06-10zm-23.878 37.438c13.478-0.331 16.808 20.443 2.438 23.156-14.841 2.802-19.68-20.314-4.5-22.937 0.711-0.123 1.4-0.203 2.062-0.219z" fill="url(#linearGradient40354)"/>
      <path id="path14859" d="m116.61 36.274c-9.9 0.139-19.731 3.065-27.84 9.094-15.843 11.78-23.694 30.982-21.062 50.5 0.736 5.452 4.346 10.382 5.062 15.652 5.091 4.89 8.412 10.98 14.282 15.22 17.278 12.5 41.958 13.82 59.808 1.5 4.99-3.43 9.12-7.68 12.69-12.56 2.39-3.26 4.45-7.89 8.66-9.16 3.64-1.09 6.39 2.91 10.03 2.35 2.65-0.41 2.02-3.72 4.25-4.69 1.27-0.55 8.94-3.14 9.91-2.87 1.9 0.52 2.58 2.94 4.84 2.78 2.98-0.21 3.93-3.92 6.59-4.566 2.4-0.58 4.13 2.826 5.85 3.936 3.95 2.54 7.7-1.02 9.47-4.373 2.79 1.453 4.45 5.423 7.71 5.683 3.09 0.26 5.06-3.27 7.66-2.96 4.18 0.48 6.84 4.43 11.88 2.9 5.92-1.8 11.27-9.589 16.06-13.404 1.86-1.485 4.72-3.24 5.03-5.844 0.34-2.854-3.44-6.902-5.28-8.813-3.4-3.525-11.85-1.875-16.38-1.875-15.04 0-30.02-1.186-45.03-1.187-6.1-0.001-18.87 2.993-18.97-5.313l-10.68-0.437-8.29-3.719c-1.3-7.239-8.48-13.716-14.18-17.844-9.17-6.637-20.67-10.159-32.07-10zm-23.871 37.438c13.481-0.331 16.811 20.443 2.438 23.156-14.841 2.802-19.681-20.314-4.5-22.937 0.71-0.123 1.399-0.203 2.062-0.219z" fill="url(#radialGradient40356)"/>
      <path id="path24532" opacity=".8" fill="url(#radialGradient40358)" d="m116.67 36.441c-9.9 0.139-19.737 3.065-27.846 9.094-15.843 11.78-23.694 26.981-21.062 46.5 0.736 5.454 4.346 10.385 5.062 15.655 5.091 4.88 8.412 10.97 14.281 15.22 17.275 12.5 37.955 13.82 55.815 1.5 4.98-3.44 9.12-7.69 12.69-12.56 2.38-3.26 8.44-5.89 12.65-7.16 3.64-1.09 6.39 2.91 10.03 2.34 2.65-0.41 2.02-3.71 4.25-4.68 1.27-0.56 8.95-3.142 9.91-2.878 1.9 0.524 2.58 2.938 4.84 2.778 2.98-0.21 3.93-3.914 6.6-4.559 2.39-0.58 4.12 2.829 5.84 3.939 3.95 2.54 7.7-1.02 9.47-4.376 2.79 1.456 4.45 5.416 7.72 5.686 3.08 0.25 5.05-3.27 7.65-2.968 4.18 0.488 6.85 4.438 11.88 2.908 5.93-1.81 7.28-7.592 12.06-11.408 1.86-1.484 4.72-3.239 5.03-5.843 0.35-2.855-3.44-6.902-5.28-8.813-3.39-3.525-11.84-1.875-16.37-1.875-15.05 0-30.02-1.186-45.03-1.187-6.1-0.001-18.87 2.993-18.97-5.313l-10.69-0.437-8.28-3.719c-1.31-7.239-8.49-13.716-14.19-17.844-9.17-6.637-16.66-10.16-28.06-10zm-23.877 37.438c13.477-0.331 16.807 20.443 2.437 23.156-14.84 2.802-19.68-20.314-4.5-22.938 0.711-0.122 1.4-0.202 2.063-0.218z"/>
      <path id="path15742" d="m116.61 35.903c-9.9 0.139-19.731 3.065-27.84 9.094-15.843 11.78-23.694 30.981-21.062 50.5 0.736 5.453 4.346 10.383 5.062 15.653 5.091 4.88 8.412 10.98 14.282 15.22 17.278 12.5 41.958 13.82 59.808 1.5 4.99-3.43 9.12-7.69 12.69-12.56 2.39-3.26 4.45-7.89 8.66-9.16 3.64-1.09 6.39 2.91 10.03 2.35 2.65-0.41 2.02-3.72 4.25-4.69 1.27-0.55 8.94-3.14 9.91-2.88 1.9 0.53 2.58 2.95 4.84 2.79 2.98-0.22 3.93-3.922 6.59-4.567 2.4-0.58 4.13 2.827 5.85 3.937 3.95 2.54 7.7-1.02 9.47-4.374 2.79 1.454 4.45 5.424 7.71 5.684 3.09 0.25 5.06-3.27 7.66-2.97 4.18 0.49 6.84 4.44 11.88 2.91 5.92-1.8 11.27-9.59 16.06-13.406 1.86-1.484 4.72-3.239 5.03-5.843 0.34-2.855-3.44-6.902-5.28-8.813-3.4-3.525-11.85-1.875-16.38-1.875-15.04 0-30.02-1.186-45.03-1.187-6.1-0.001-18.87 2.993-18.97-5.313l-10.68-0.437-8.29-3.719c-1.3-7.239-8.48-13.716-14.18-17.844-9.17-6.637-20.67-10.159-32.07-10zm-23.871 37.438c13.481-0.331 16.811 20.443 2.438 23.156-14.841 2.802-19.681-20.314-4.5-22.938 0.71-0.122 1.399-0.202 2.062-0.218z" fill="url(#radialGradient40360)"/>
      <path id="path16625" opacity=".7" fill="url(#linearGradient40362)" d="m167.47 106.52c3.63-1.09 6.39 2.91 10.03 2.35 2.65-0.41 2.01-3.72 4.25-4.69 1.27-0.55 8.94-3.14 9.9-2.87 1.91 0.52 2.59 2.94 4.85 2.78 2.98-0.21 3.93-3.92 6.59-4.566 2.4-0.58 4.12 2.826 5.84 3.936 3.95 2.54 7.71-1.02 9.47-4.373 2.79 1.453 4.46 5.423 7.72 5.683 3.08 0.26 5.06-3.27 7.66-2.96 4.17 0.48 6.84 4.43 11.87 2.9 5.93-1.8 11.28-9.589 16.07-13.404 1.86-1.485 4.71-3.24 5.03-5.844 0.34-2.854-3.44-6.902-5.28-8.813-3.4-3.525-11.85-1.875-16.38-1.875-15.05 0-30.02-1.186-45.03-1.187-6.1-0.001-18.87 2.993-18.97-5.313l-8.83 0.305s-5.97-5.664-11.4-1.705c-21.43 15.641 4.5 40.286 6.61 39.646z"/>
      <path id="rect18381" fill-rule="evenodd" fill="url(#linearGradient40364)" d="m181.88 78.375l-7.19 1.281 3.84 4.844h87.75l0.38-0.969-4-5.156h-80.78zm-1.72 8.156l1.72 2.157h82.78l0.84-2.157h-85.34z"/>
      <path id="path19270" opacity=".5" fill-rule="evenodd" fill="url(#linearGradient40366)" d="m181.88 78.308l-7.21 1.281 3.85 4.844h88.08l0.38-0.969-4.02-5.156h-81.08zm-1.73 8.156l1.73 2.156h83.09l0.85-2.156h-85.67z"/>
      <path id="path26290" opacity=".6" d="m183.5 102.98a4.4506 5.6489 0 1 1 -8.9 0 4.4506 5.6489 0 1 1 8.9 0z" fill-rule="evenodd" transform="translate(-2.37 -.14812)" fill="url(#radialGradient40368)"/>
      <path id="path26292" opacity=".6" d="m183.5 102.98a4.4506 5.6489 0 1 1 -8.9 0 4.4506 5.6489 0 1 1 8.9 0z" fill-rule="evenodd" transform="matrix(1 0 0 .75089 18.101 21.947)" fill="url(#radialGradient40370)"/>
      <path id="path26294" opacity=".6" d="m183.5 102.98a4.4506 5.6489 0 1 1 -8.9 0 4.4506 5.6489 0 1 1 8.9 0z" fill-rule="evenodd" transform="matrix(1.0998 0 0 .68534 15.481 29.365)" fill="url(#radialGradient40372)"/>
      <path id="path26296" opacity=".6" d="m183.5 102.98a4.4506 5.6489 0 1 1 -8.9 0 4.4506 5.6489 0 1 1 8.9 0z" fill-rule="evenodd" transform="matrix(1 0 0 .79022 48.023 18.712)" fill="url(#radialGradient40374)"/>
      <path id="path26298" opacity=".6" d="m183.5 102.98a4.4506 5.6489 0 1 1 -8.9 0 4.4506 5.6489 0 1 1 8.9 0z" fill-rule="evenodd" transform="matrix(0 1 -1.1967 0 367.27 -78.817)" fill="url(#radialGradient40376)"/>
      <path id="path26300" opacity=".7" d="m183.5 102.98a4.4506 5.6489 0 1 1 -8.9 0 4.4506 5.6489 0 1 1 8.9 0z" fill-rule="evenodd" transform="matrix(1.6841 0 0 1.3147 -42.707 -50.996)" fill="url(#radialGradient40378)"/>
      <path id="path605" d="m117 38.031c-2.06 0.031-4.15 0.202-6.22 0.438-7.13 0.812-14.233 3.874-20.155 7.843-5.555 3.724-9.568 8.464-13.187 14.032-10.854 16.699-10.457 38.906 1.468 55.066 14.714 19.93 46.614 26.1 66.784 10.71 7.12-5.43 14.6-12.5 18.43-20.74-6.71 3.48-10.42 11.55-16 16.56-10.27 9.22-25.76 12.49-39.12 9.94-5.92-1.14-11.427-3.67-16.562-6.76-37.136-22.27-20.882-80.782 20.722-84.808 13.02-1.26 25.8 2.467 35.56 11.25 5.49 4.947 9.98 15.001 17.69 16.469-5.6-4.105-8.37-10.364-13.07-15.343-5.24-5.557-11.83-9.026-18.84-11.719-5.67-2.178-11.56-3.026-17.5-2.938zm-19.438 35.969c9.048 4.117 9.808 19.821-2.562 22.156-6.829 1.29-11.565-2.901-13.188-8.062 1.282 6.068 6.44 11.387 14.157 9.906 13.441-2.579 12.081-20.435 1.593-24z" fill="#fff"/>
      <path id="path39445" opacity=".7" d="m158.79 65.549a20.11 27.442 0 1 1 -40.22 0 20.11 27.442 0 1 1 40.22 0z" fill-rule="evenodd" transform="matrix(1.5874 .57246 -.31593 .87607 -74.579 -70.635)" fill="url(#radialGradient40380)"/>
    </g>
    <path id="path6722" opacity=".8" d="m535.62 684.32a93.969 14.095 0 1 1 -187.93 0 93.969 14.095 0 1 1 187.93 0z" fill-rule="evenodd" transform="matrix(.85307 0 0 .37556 -183.43 -23.731)" fill="url(#radialGradient7603)"/>
    <text id="text41997" style="text-anchor:middle;text-align:center" xml:space="preserve" font-size="24px" line-height="100%" y="407.33972" x="182.82051" font-family="Arial" fill="#000000">
      <tspan id="tspan41999" y="407.33972" x="182.82051">"Shiny Key" - Timothy King</tspan>
      <tspan id="tspan42001" y="431.33972" x="182.82051">www.kingmediaworks.com</tspan>
    </text>
  </g>
  <metadata>
    <rdf:RDF>
      <cc:Work>
        <dc:format>image/svg+xml</dc:format>
        <dc:type rdf:resource="http://purl.org/dc/dcmitype/StillImage"/>
        <cc:license rdf:resource="http://creativecommons.org/licenses/publicdomain/"/>
        <dc:publisher>
          <cc:Agent rdf:about="http://openclipart.org/">
            <dc:title>Openclipart</dc:title>
          </cc:Agent>
        </dc:publisher>
        <dc:title>Shiny Key</dc:title>
        <dc:date>2006-09-25T08:50:23</dc:date>
        <dc:description>This is a remix of the key_jordan_wiens_01.svg file from the clipart repository. Since Jordan's clipart was not submitted via the new cchost site, I could not get this posted in the remix section.This is a significant overhaul, taking his simple shape and making a full color 3d key.</dc:description>
        <dc:source>http://openclipart.org/detail/211/shiny-key-by-tiothy</dc:source>
        <dc:creator>
          <cc:Agent>
            <dc:title>tiothy</dc:title>
          </cc:Agent>
        </dc:creator>
        <dc:subject>
          <rdf:Bag>
            <rdf:li>clip art</rdf:li>
            <rdf:li>clipart</rdf:li>
            <rdf:li>grey</rdf:li>
            <rdf:li>key</rdf:li>
            <rdf:li>metal</rdf:li>
            <rdf:li>metallic</rdf:li>
            <rdf:li>shiny</rdf:li>
            <rdf:li>tool</rdf:li>
          </rdf:Bag>
        </dc:subject>
      </cc:Work>
      <cc:License rdf:about="http://creativecommons.org/licenses/publicdomain/">
        <cc:permits rdf:resource="http://creativecommons.org/ns#Reproduction"/>
        <cc:permits rdf:resource="http://creativecommons.org/ns#Distribution"/>
        <cc:permits rdf:resource="http://creativecommons.org/ns#DerivativeWorks"/>
      </cc:License>
    </rdf:RDF>
  </metadata>
</svg>